<?xml version="1.0" encoding="UTF-8"?>
<svg id="Layer_2" data-name="Layer 2" xmlns="http://www.w3.org/2000/svg" xmlns:xlink="http://www.w3.org/1999/xlink" viewBox="0 0 109.52 92.55">
  <defs>
    <linearGradient id="linear-gradient" x1="176.79" y1="579.42" x2="176.79" y2="654.16" gradientTransform="translate(244.33 663.03) rotate(-32.55) scale(1 -1)" gradientUnits="userSpaceOnUse">
      <stop offset="0" stop-color="#fff"/>
      <stop offset="1" stop-color="#000"/>
    </linearGradient>
    <linearGradient id="linear-gradient-2" x1="120.85" y1="590.2" x2="120.85" y2="635.6" gradientTransform="translate(244.33 663.03) rotate(-32.55) scale(1 -1)" gradientUnits="userSpaceOnUse">
      <stop offset="0" stop-color="#eee"/>
      <stop offset=".53" stop-color="#d8d8d8"/>
      <stop offset="1" stop-color="#cbcbca"/>
    </linearGradient>
    <linearGradient id="linear-gradient-3" x1="125.33" y1="589.02" x2="125.33" y2="632.93" xlink:href="#linear-gradient-2"/>
    <linearGradient id="linear-gradient-4" x1="129.83" y1="588.17" x2="129.83" y2="631.17" xlink:href="#linear-gradient-2"/>
    <linearGradient id="linear-gradient-5" x1="134.36" y1="587.63" x2="134.36" y2="630.24" xlink:href="#linear-gradient-2"/>
    <linearGradient id="linear-gradient-6" x1="138.87" y1="587.32" x2="138.87" y2="630.64" xlink:href="#linear-gradient-2"/>
    <linearGradient id="linear-gradient-7" x1="143.44" y1="587.08" x2="143.44" y2="631.76" xlink:href="#linear-gradient-2"/>
    <linearGradient id="linear-gradient-8" x1="147.99" y1="586.95" x2="147.99" y2="633.38" xlink:href="#linear-gradient-2"/>
    <linearGradient id="linear-gradient-9" x1="152.55" y1="587.04" x2="152.55" y2="635.36" xlink:href="#linear-gradient-2"/>
    <linearGradient id="linear-gradient-10" x1="157.13" y1="587.32" x2="157.13" y2="637.61" xlink:href="#linear-gradient-2"/>
    <linearGradient id="linear-gradient-11" x1="161.75" y1="587.76" x2="161.75" y2="640.03" xlink:href="#linear-gradient-2"/>
    <linearGradient id="linear-gradient-12" x1="166.35" y1="588.33" x2="166.35" y2="642.52" xlink:href="#linear-gradient-2"/>
    <linearGradient id="linear-gradient-13" x1="170.97" y1="589.03" x2="170.97" y2="645" xlink:href="#linear-gradient-2"/>
    <linearGradient id="linear-gradient-14" x1="176.49" y1="589.81" x2="176.49" y2="647.35" xlink:href="#linear-gradient-2"/>
    <linearGradient id="linear-gradient-15" x1="181.16" y1="590.67" x2="181.16" y2="649.48" xlink:href="#linear-gradient-2"/>
    <linearGradient id="linear-gradient-16" x1="185.83" y1="591.58" x2="185.83" y2="651.29" xlink:href="#linear-gradient-2"/>
    <linearGradient id="linear-gradient-17" x1="190.43" y1="592.52" x2="190.43" y2="652.69" xlink:href="#linear-gradient-2"/>
    <linearGradient id="linear-gradient-18" x1="195.08" y1="593.47" x2="195.08" y2="653.58" xlink:href="#linear-gradient-2"/>
    <linearGradient id="linear-gradient-19" x1="199.76" y1="594.42" x2="199.76" y2="653.87" xlink:href="#linear-gradient-2"/>
    <linearGradient id="linear-gradient-20" x1="204.39" y1="595.34" x2="204.39" y2="653.56" xlink:href="#linear-gradient-2"/>
    <linearGradient id="linear-gradient-21" x1="209.01" y1="596.15" x2="209.01" y2="653.07" xlink:href="#linear-gradient-2"/>
    <linearGradient id="linear-gradient-22" x1="213.65" y1="596.87" x2="213.65" y2="651.88" xlink:href="#linear-gradient-2"/>
    <linearGradient id="linear-gradient-23" x1="218.23" y1="597.51" x2="218.23" y2="649.82" xlink:href="#linear-gradient-2"/>
    <linearGradient id="linear-gradient-24" x1="222.85" y1="598.03" x2="222.85" y2="646.81" xlink:href="#linear-gradient-2"/>
    <linearGradient id="linear-gradient-25" x1="227.45" y1="598.13" x2="227.45" y2="642.82" xlink:href="#linear-gradient-2"/>
  </defs>
  <g id="Layer_1-2" data-name="Layer 1">
    <g>
      <path d="m109.52,1.28c-.1,0-.21-.03-.28-.04-2.16-.29-4.23-.44-6.27-.48-.12.01-.23-.01-.35,0-2.1-.04-4.13.06-6.08.27-.12.01-.21.01-.32.05-1.95.24-3.82.56-5.63,1.02-.1.03-.18.06-.3.07-1.81.46-3.56,1.02-5.24,1.68-.1.03-.17.08-.27.11-1.68.66-3.29,1.44-4.85,2.28-.09.06-.16.1-.26.13-1.55.86-3.06,1.8-4.53,2.83l-.25.16c-1.45,1.02-2.86,2.11-4.24,3.3-.09.06-.14.12-.22.2-1.37,1.15-2.68,2.4-3.98,3.7-.07.08-.13.14-.22.2-1.28,1.29-2.53,2.62-3.76,4-.07.08-.13.14-.2.22-1.22,1.38-2.41,2.82-3.59,4.27-.07.08-.13.14-.19.25-1.17,1.47-2.32,2.96-3.46,4.47-.07.08-.11.17-.19.25-1.14,1.51-2.23,3.05-3.35,4.59-.07.08-.11.17-.19.25-1.11,1.56-2.2,3.1-3.29,4.64-.07.08-.11.17-.19.25-1.09,1.54-2.18,3.08-3.26,4.63-.07.08-.11.17-.19.25-1.09,1.54-2.19,3.06-3.28,4.54-.07.08-.11.17-.19.25-1.12,1.5-2.22,2.96-3.35,4.4-.07.08-.13.14-.19.25-1.12,1.44-2.27,2.83-3.45,4.18-.05.07-.13.14-.18.21-1.18,1.35-2.36,2.64-3.58,3.89-.05.07-.13.14-.19.19-1.21,1.25-2.47,2.42-3.76,3.56-.05.07-.14.12-.19.19-1.3,1.11-2.61,2.17-3.95,3.15-.07.04-.16.1-.21.16-1.36.96-2.77,1.86-4.22,2.69-.07.04-.16.1-.24.12-1.46.81-2.94,1.53-4.5,2.15-.08.02-.17.08-.25.1-1.55.62-3.16,1.14-4.81,1.56-.08.02-.18.06-.27.08-1.66.4-3.36.73-5.15.93,12.2,6.37,22.99,11.23,32.66,15.07.09.04.17.08.25.09,33.03-5.26,42.49-42.22,68.3-54.77-.01-.12,0-.25,0-.35.04-.03.09-.06.13-.05.04-13.56,1.78-25.84,5.75-36.1Z" style="fill: url(#linear-gradient);"/>
      <g>
        <path d="m102.22,37.36c-26.06,12.58-35.51,50.16-68.97,55.19-9.83-3.84-20.81-8.75-33.26-15.32,22.84-1.89,35.52-22.45,49.49-42.08C63.51,15.61,78.82-2.99,107.46.71c-3.79,10.49-5.38,22.96-5.24,36.65Z" style="fill: #231f20;"/>
        <path d="m36.87,91.72c-1.25.3-2.55.53-3.88.75-9.75-3.86-20.64-8.74-32.99-15.24,1.8-.18,3.55-.44,5.22-.82,11.73,6.23,22.17,11.18,31.65,15.31Z" style="fill: url(#linear-gradient-2);"/>
        <path d="m40.75,90.63c-1.18.41-2.41.75-3.66,1.05-9.45-4.14-19.9-9.09-31.59-15.31,1.7-.39,3.3-.88,4.89-1.49,11.11,6.09,21.15,11.24,30.36,15.75Z" style="fill: url(#linear-gradient-3);"/>
        <path d="m44.38,89.22c-1.13.5-2.26.94-3.45,1.33-9.2-4.52-19.21-9.68-30.3-15.79,1.57-.59,3.09-1.31,4.56-2.1,10.57,6.19,20.24,11.6,29.19,16.56Z" style="fill: url(#linear-gradient-4);"/>
        <path d="m47.83,87.55c-1.05.57-2.14,1.12-3.26,1.58-8.92-4.98-18.58-10.43-29.14-16.59,1.48-.79,2.9-1.66,4.26-2.62,10.09,6.37,19.43,12.15,28.15,17.64Z" style="fill: url(#linear-gradient-5);"/>
        <path d="m51.07,85.64c-1,.64-2.02,1.26-3.08,1.81-8.69-5.5-18-11.33-28.08-17.68,1.36-.96,2.72-1.99,4.02-3.1,9.63,6.63,18.67,12.92,27.14,18.97Z" style="fill: url(#linear-gradient-6);"/>
        <path d="m54.19,83.49c-.96.71-1.94,1.39-2.94,2.03-8.49-6.07-17.48-12.39-27.09-19.03,1.3-1.11,2.56-2.29,3.81-3.53,9.21,7.05,17.92,13.86,26.22,20.53Z" style="fill: url(#linear-gradient-7);"/>
        <path d="m57.12,81.15c-.92.77-1.83,1.51-2.79,2.22-8.27-6.71-16.96-13.54-26.17-20.59,1.25-1.24,2.44-2.53,3.64-3.89,8.8,7.54,17.26,14.94,25.32,22.26Z" style="fill: url(#linear-gradient-8);"/>
        <path d="m59.93,78.67c-.87.8-1.77,1.6-2.67,2.36-8.05-7.35-16.47-14.79-25.28-22.35,1.18-1.35,2.33-2.74,3.49-4.17,8.44,8.11,16.61,16.14,24.46,24.16Z" style="fill: url(#linear-gradient-9);"/>
        <path d="m62.64,76.03c-.84.85-1.69,1.68-2.57,2.52-7.86-8.04-16-16.12-24.44-24.27,1.14-1.45,2.25-2.91,3.37-4.41,8.11,8.73,15.98,17.46,23.64,26.16Z" style="fill: url(#linear-gradient-10);"/>
        <path d="m65.28,73.28c-.81.89-1.64,1.77-2.47,2.62-7.65-8.74-15.49-17.49-23.58-26.27,1.12-1.5,2.22-3.02,3.33-4.57,7.7,9.4,15.28,18.82,22.72,28.22Z" style="fill: url(#linear-gradient-11);"/>
        <path d="m67.83,70.43c-.8.92-1.61,1.81-2.42,2.7-7.44-9.44-15-18.87-22.7-28.33,1.09-1.54,2.2-3.1,3.31-4.65,7.32,10.09,14.61,20.18,21.81,30.28Z" style="fill: url(#linear-gradient-12);"/>
        <path d="m70.31,67.53c-.78.94-1.56,1.84-2.35,2.76-7.19-10.13-14.44-20.26-21.76-30.41,1.11-1.56,2.21-3.13,3.32-4.69,6.91,10.78,13.86,21.57,20.8,32.34Z" style="fill: url(#linear-gradient-13);"/>
        <path d="m72.76,64.58c-.78.94-1.54,1.86-2.32,2.8-6.93-10.8-13.83-21.62-20.76-32.43,1.11-1.56,2.22-3.11,3.36-4.62,6.5,11.42,13.09,22.82,19.73,34.25Z" style="fill: url(#linear-gradient-14);"/>
        <path d="m75.17,61.63c-.76.92-1.54,1.86-2.3,2.79-6.63-11.47-13.18-22.92-19.68-34.37,1.12-1.53,2.3-3.04,3.45-4.53,6.06,12.05,12.23,24.09,18.53,36.11Z" style="fill: url(#linear-gradient-15);"/>
        <path d="m77.63,58.68c-.76.92-1.54,1.86-2.3,2.79-6.29-12.06-12.45-24.14-18.45-36.19,1.17-1.47,2.37-2.93,3.6-4.34,5.46,12.59,11.19,25.16,17.15,37.74Z" style="fill: url(#linear-gradient-16);"/>
        <path d="m80.05,55.78c-.77.9-1.56,1.84-2.33,2.74-5.93-12.63-11.64-25.22-17.1-37.81,1.23-1.41,2.47-2.77,3.77-4.07,4.91,13,10.13,26.06,15.66,39.14Z" style="fill: url(#linear-gradient-17);"/>
        <path d="m82.53,52.94c-.79.88-1.56,1.78-2.36,2.7-5.52-13.12-10.72-26.19-15.57-39.19,1.3-1.3,2.61-2.55,3.99-3.74,4.21,13.29,8.86,26.71,13.94,40.23Z" style="fill: url(#linear-gradient-18);"/>
        <path d="m85.08,50.19c-.8.86-1.61,1.72-2.39,2.6-5.06-13.53-9.7-26.99-13.83-40.31,1.37-1.19,2.77-2.3,4.24-3.34,3.37,13.49,7.39,27.21,11.98,41.05Z" style="fill: url(#linear-gradient-19);"/>
        <path d="m87.67,47.56c-.83.81-1.65,1.65-2.46,2.48-4.55-13.86-8.55-27.6-11.87-41.08,1.47-1.04,2.97-1.99,4.53-2.89,2.51,13.53,5.81,27.4,9.81,41.49Z" style="fill: url(#linear-gradient-20);"/>
        <path d="m90.35,45.07c-.86.77-1.7,1.56-2.54,2.37-3.98-14.1-7.25-27.99-9.7-41.46,1.57-.88,3.18-1.65,4.87-2.35,1.5,13.32,4.02,27.2,7.37,41.45Z" style="fill: url(#linear-gradient-21);"/>
        <path d="m93.16,42.74c-.9.7-1.78,1.45-2.64,2.22-3.35-14.25-5.8-28.13-7.23-41.44,1.7-.68,3.44-1.25,5.23-1.74.34,12.93,1.96,26.69,4.64,40.96Z" style="fill: url(#linear-gradient-22);"/>
        <path d="m96.05,40.58c-.94.63-1.86,1.31-2.79,2.03-2.64-14.26-4.2-28.02-4.51-40.91,1.81-.46,3.71-.83,5.66-1.07-.86,12.32-.21,25.78,1.64,39.95Z" style="fill: url(#linear-gradient-23);"/>
        <path d="m99.12,38.65c-.99.57-1.97,1.19-2.91,1.83-1.84-14.15-2.42-27.59-1.47-39.88,1.96-.22,3.99-.35,6.09-.34-2.28,11.47-2.72,24.46-1.71,38.39Z" style="fill: url(#linear-gradient-24);"/>
        <path d="m102.33,36.94c-1.03.5-2.07,1.04-3.06,1.61-.97-13.92-.47-26.86,1.9-38.29,2.12.03,4.29.18,6.58.48-3.85,10.34-5.49,22.68-5.43,36.21Z" style="fill: url(#linear-gradient-25);"/>
      </g>
      <g>
        <g>
          <path d="m31.9,85.07c-1.3.58-2.65,1.06-4.05,1.52-6.52-3.12-13.45-6.61-20.9-10.61,1.71-.47,3.35-1.04,4.94-1.71,7.1,3.94,13.75,7.52,20.02,10.8Z" style="fill: #231f20;"/>
          <path d="m31.32,85.09c-1.31.55-2.69,1.05-4.07,1.5-6.54-3.11-13.52-6.63-21.01-10.64,1.73-.44,3.37-1.02,4.99-1.68,7.1,3.94,13.78,7.53,20.09,10.82Z" style="fill: #231f20;"/>
        </g>
        <g>
          <path d="m78.83,37.1c-1.03,1-2.02,2.04-3.01,3.11-3.26-8.56-6.35-17.14-9.29-25.62,1.38-1.29,2.78-2.53,4.24-3.68,2.46,8.67,5.14,17.4,8.05,26.19Z" style="fill: #231f20;"/>
          <path d="m78.45,37c-1.01,1.02-2.01,2.07-3.01,3.15-3.29-8.54-6.41-17.07-9.38-25.56,1.36-1.31,2.77-2.55,4.24-3.74,2.51,8.66,5.23,17.38,8.16,26.16Z" style="fill: #231f20;"/>
        </g>
        <g>
          <path d="m88.45,29.2c-1.17.78-2.32,1.58-3.43,2.44-2.07-9-3.81-17.88-5.19-26.57,1.66-.84,3.39-1.57,5.16-2.19.73,8.52,1.89,17.32,3.46,26.33Z" style="fill: #231f20;"/>
          <path d="m92.73,26.72c-1.25.64-2.48,1.33-3.66,2.09-1.48-9.01-2.53-17.79-3.11-26.27,1.82-.6,3.67-1.09,5.63-1.46-.18,8.18.21,16.76,1.14,25.64Z" style="fill: #231f20;"/>
          <path d="m97.29,24.72c-1.34.51-2.65,1.06-3.89,1.67-.82-8.86-1.08-17.39-.75-25.48,1.97-.31,4.03-.53,6.15-.6-1.22,7.59-1.67,15.79-1.5,24.41Z" style="fill: #231f20;"/>
          <path d="m92.42,26.48c-1.25.64-2.46,1.35-3.66,2.09-1.5-8.99-2.59-17.78-3.21-26.27,1.8-.62,3.69-1.1,5.62-1.48-.13,8.21.3,16.79,1.25,25.67Z" style="fill: #231f20;"/>
          <path d="m88.1,29.01c-1.17.78-2.31,1.6-3.42,2.46-2.11-9.01-3.87-17.87-5.28-26.58,1.66-.84,3.38-1.59,5.15-2.25.75,8.56,1.94,17.35,3.55,26.37Z" style="fill: #231f20;"/>
          <path d="m97.06,24.45c-1.34.51-2.65,1.06-3.92,1.68-.82-8.86-1.14-17.38-.84-25.52,1.97-.35,4.01-.55,6.13-.62-1.16,7.62-1.58,15.82-1.38,24.45Z" style="fill: #231f20;"/>
        </g>
        <g>
          <path d="m52.5,69.04c-.97,1.09-1.95,2.16-2.97,3.21-5.33-4.91-10.79-9.88-16.4-14.87,1.2-1.42,2.38-2.9,3.56-4.41,5.39,5.35,10.64,10.72,15.81,16.06Z" style="fill: #231f20;"/>
          <path d="m55.88,65.09c-.94,1.13-1.88,2.27-2.87,3.37-5.13-5.42-10.37-10.84-15.7-16.29,1.16-1.53,2.31-3.07,3.45-4.62,5.13,5.83,10.16,11.69,15.12,17.54Z" style="fill: #231f20;"/>
          <path d="m59.16,60.98c-.91,1.18-1.84,2.33-2.78,3.47-4.94-5.92-9.93-11.87-15-17.8,1.13-1.57,2.27-3.18,3.41-4.78,4.84,6.39,9.62,12.76,14.37,19.12Z" style="fill: #231f20;"/>
          <path d="m55.47,65.09c-.94,1.13-1.9,2.28-2.87,3.37-5.13-5.39-10.4-10.79-15.75-16.22,1.16-1.53,2.32-3.05,3.48-4.64,5.11,5.84,10.17,11.65,15.15,17.49Z" style="fill: #231f20;"/>
          <path d="m52.05,69.07c-.97,1.09-1.97,2.17-2.99,3.19-5.34-4.88-10.82-9.82-16.47-14.79,1.22-1.44,2.4-2.88,3.57-4.38,5.43,5.36,10.71,10.68,15.88,15.98Z" style="fill: #231f20;"/>
          <path d="m58.79,60.94c-.91,1.18-1.86,2.35-2.8,3.48-4.93-5.9-9.95-11.8-15.04-17.71,1.15-1.58,2.27-3.18,3.41-4.78,4.87,6.34,9.67,12.69,14.43,19.01Z" style="fill: #231f20;"/>
        </g>
        <g>
          <path d="m62.45,56.75c-.91,1.18-1.82,2.36-2.74,3.54-4.71-6.44-9.46-12.9-14.24-19.36,1.14-1.61,2.27-3.24,3.41-4.84,4.51,6.92,9.03,13.8,13.57,20.66Z" style="fill: #231f20;"/>
          <path d="m62.03,56.77c-.91,1.18-1.83,2.39-2.76,3.55-4.73-6.43-9.51-12.83-14.3-19.25,1.14-1.61,2.27-3.24,3.43-4.86,4.54,6.87,9.1,13.72,13.63,20.56Z" style="fill: #231f20;"/>
        </g>
        <g>
          <path d="m70.02,47.02c-.93,1.16-1.85,2.31-2.76,3.49-4.13-7.6-8.22-15.19-12.25-22.79,1.21-1.55,2.39-3.09,3.64-4.58,3.71,7.93,7.51,15.9,11.38,23.88Z" style="fill: #231f20;"/>
          <path d="m73.36,43c-.95,1.11-1.89,2.25-2.83,3.38-3.83-8.01-7.57-16.04-11.22-24.07,1.25-1.49,2.52-2.93,3.84-4.31,3.25,8.35,6.67,16.65,10.21,25Z" style="fill: #231f20;"/>
          <path d="m69.66,46.94c-.93,1.16-1.86,2.35-2.77,3.53-4.14-7.56-8.25-15.14-12.31-22.72,1.19-1.58,2.41-3.11,3.65-4.62,3.73,7.91,7.55,15.87,11.43,23.81Z" style="fill: #231f20;"/>
          <path d="m73.03,42.87c-.95,1.11-1.89,2.25-2.84,3.42-3.85-8-7.6-15.99-11.27-24.01,1.25-1.49,2.52-2.93,3.83-4.33,3.31,8.28,6.74,16.61,10.29,24.92Z" style="fill: #231f20;"/>
        </g>
        <g>
          <path d="m40.43,80.19c-1.14.82-2.31,1.6-3.54,2.32-5.99-3.58-12.3-7.37-18.94-11.43,1.46-.9,2.88-1.93,4.27-3.01,6.33,4.22,12.4,8.22,18.21,12.11Z" style="fill: #231f20;"/>
          <path d="m44.37,77.11c-1.08.91-2.18,1.8-3.33,2.66-5.78-3.94-11.8-8.01-18.09-12.25,1.37-1.1,2.69-2.28,4-3.52,5.99,4.47,11.8,8.85,17.42,13.12Z" style="fill: #231f20;"/>
          <path d="m39.95,80.22c-1.14.82-2.34,1.59-3.55,2.3-6.01-3.57-12.35-7.34-19.01-11.38,1.46-.9,2.89-1.91,4.29-2.96,6.34,4.18,12.43,8.17,18.27,12.04Z" style="fill: #231f20;"/>
          <path d="m43.93,77.11c-1.08.91-2.2,1.81-3.34,2.63-5.8-3.93-11.84-7.98-18.15-12.21,1.37-1.1,2.72-2.27,4.01-3.5,6.05,4.46,11.87,8.81,17.48,13.08Z" style="fill: #231f20;"/>
        </g>
      </g>
    </g>
  </g>
</svg>