<?xml version="1.0" encoding="UTF-8"?>
<svg id="Layer_2" data-name="Layer 2" xmlns="http://www.w3.org/2000/svg" viewBox="0 0 309.43 572.45">
  <g id="Layer_1-2" data-name="Layer 1">
    <path d="m220.23,546.82c0,14.15-29.41,25.63-65.69,25.63s-65.7-11.48-65.7-25.63,29.41-25.63,65.7-25.63,65.69,11.47,65.69,25.63" style="fill: #38383e;"/>
    <path d="m297.27,411.95H11.8v-176.95h19.79v152.88h245.89v-152.88h19.79v176.95" style="fill: #38383e;"/>
    <path d="m178.78,546.82h-48.49v-134.86h48.49v134.86" style="fill: #38383e;"/>
    <path d="m303.53,264.49H4.86v-7.01h298.67v7.01" style="fill: #38383e;"/>
    <path d="m5.9,251.27c-3.26,0-5.9,3.04-5.9,6.8v5.84c0,3.75,2.64,6.79,5.9,6.79s5.9-3.04,5.9-6.79v-5.84c0-3.76-2.64-6.8-5.9-6.8" style="fill: #38383e;"/>
    <path d="m303.53,251.27c-3.26,0-5.9,3.04-5.9,6.8v5.84c0,3.75,2.64,6.79,5.9,6.79s5.9-3.04,5.9-6.79v-5.84c0-3.76-2.64-6.8-5.9-6.8" style="fill: #38383e;"/>
    <path d="m196.03,213.57v-8.28h75.71v-8.78h-75.71v-8.29h75.71v-8.78h-75.71v-8.29h75.71v-8.78h-75.71v-8.28h75.71v-8.78h-75.71v-8.29h75.71v-8.78h-75.71v-8.29h75.71v-15.61c0-38.81-23.79-72.64-59.05-90.62v35.03h-27.09V3.7c-9.84-2.39-20.19-3.7-30.89-3.7s-21.04,1.31-30.88,3.7v45.05h-27.09V13.72c-35.26,17.97-59.05,51.81-59.05,90.62v15.61h75.71v8.29H37.69v8.78h75.71v8.29H37.69v8.78h75.71v8.28H37.69v8.78h75.71v8.29H37.69v8.78h75.71v8.29H37.69v8.78h75.71v8.28H37.69v38.03c0,38.82,23.79,72.65,59.05,90.63v-52.83h27.09v62.84c9.84,2.4,20.19,3.7,30.88,3.7s21.05-1.3,30.89-3.7v-62.84h27.09v52.82c35.26-17.97,59.05-51.81,59.05-90.62v-38.03h-75.71" style="fill: #f04423;"/>
  </g>
</svg>